<?xml version="1.0" standalone="no"?><!DOCTYPE svg PUBLIC "-//W3C//DTD SVG 1.1//EN" "http://www.w3.org/Graphics/SVG/1.1/DTD/svg11.dtd"><svg t="1599904628441" class="icon" viewBox="0 0 1024 1024" version="1.1" xmlns="http://www.w3.org/2000/svg" p-id="2052" xmlns:xlink="http://www.w3.org/1999/xlink" width="200" height="200"><defs><style type="text/css"></style></defs><path d="M557.149091 559.941818m-378.414546 0a378.414545 378.414545 0 1 0 756.829091 0 378.414545 378.414545 0 1 0-756.829091 0Z" fill="#BBEBA1" p-id="2053"></path><path d="M498.967273 912.756364c-226.676364 0-410.996364-184.32-410.996364-410.996364 0-13.032727 10.24-23.272727 23.272727-23.272727s23.272727 10.24 23.272728 23.272727c0 201.076364 163.374545 364.450909 364.450909 364.450909 150.807273 0 287.650909-94.487273 341.178182-235.52 4.654545-12.101818 18.152727-18.152727 29.78909-13.498182 12.101818 4.654545 18.152727 18.152727 13.498182 29.789091-60.043636 159.185455-214.574545 265.774545-384.465454 265.774546zM886.690909 525.032727c-13.032727 0-23.272727-10.24-23.272727-23.272727 0-201.076364-163.374545-364.450909-364.450909-364.450909-74.938182 0-146.618182 22.341818-208.058182 65.163636-60.043636 41.425455-105.192727 99.607273-131.723636 167.098182-4.654545 12.101818-18.152727 17.687273-30.254546 13.032727s-17.687273-18.152727-13.032727-30.254545c29.789091-76.334545 80.989091-141.498182 148.48-188.509091 68.887273-47.941818 150.341818-73.541818 234.589091-73.541818 226.676364 0 410.996364 184.32 410.996363 410.996363 0 13.032727-10.24 23.738182-23.272727 23.738182z" fill="#353E43" p-id="2054"></path><path d="M482.676364 745.658182v-37.236364c-24.203636-3.258182-40.96-8.378182-56.32-16.290909-15.36-7.912727-28.392727-20.48-39.563637-38.167273-11.170909-17.687273-17.687273-39.098182-19.549091-64.232727l49.338182-9.309091c3.723636 26.065455 10.705455 45.614545 20.014546 57.716364 13.963636 17.221818 26.996364 20.945455 46.08 22.807273v-149.41091c-20.014545-3.723636-37.236364-11.636364-58.181819-23.272727-15.36-8.843636-27.461818-20.945455-35.84-36.305454-8.378182-15.36-12.567273-33.047273-12.567272-52.596364 0-34.909091 12.101818-62.836364 36.770909-84.247273 16.290909-14.429091 37.701818-25.6 69.818182-28.858182v-28.858181h40.494545v28.858181c28.392727 2.792727 42.356364 13.032727 59.112727 26.996364 21.410909 17.687273 33.978182 41.890909 38.632728 73.076364l-50.269091 7.447272c-2.792727-19.083636-8.843636-33.978182-18.152728-44.218181-4.189091-5.12-13.498182-16.756364-29.323636-20.014546v141.032727c24.669091 6.050909 32.581818 11.170909 40.494546 14.429091 15.36 6.516364 27.461818 14.894545 37.236363 24.203637 9.774545 9.774545 16.756364 20.945455 22.341818 33.978182 5.12 13.032727 7.912727 27.461818 7.912728 42.821818 0 33.978182-10.705455 61.905455-32.116364 84.712727-21.410909 22.807273-40.96 34.909091-75.403636 36.305455v37.701818h-40.96z m0-416.116364c-19.083636 2.792727-30.72 10.705455-41.425455 22.807273-11.170909 12.101818-16.290909 26.996364-16.290909 43.752727 0 16.756364 4.654545 30.72 13.963636 41.890909 9.309091 11.170909 21.876364 20.014545 44.218182 26.996364V329.541818z m40.494545 331.869091c19.083636-2.327273 25.6-5.585455 38.632727-19.083636 10.24-10.705455 18.618182-31.650909 18.618182-52.596364 0-17.687273-4.189091-32.116364-13.032727-42.821818-8.843636-10.705455-17.687273-20.48-44.218182-28.858182v143.36z m0 0M170.356364 584.610909c-6.050909 0-12.567273-2.327273-17.221819-7.447273l-57.716363-61.905454c-8.843636-9.309091-8.378182-24.203636 0.930909-33.047273 9.309091-8.843636 24.203636-8.378182 33.047273 0.930909l57.716363 61.905455c8.843636 9.309091 8.378182 24.203636-0.930909 33.047272-4.654545 4.654545-10.24 6.516364-15.825454 6.516364zM887.156364 524.101818c-6.050909 0-12.567273-2.327273-17.221819-7.447273l-57.716363-61.905454c-8.843636-9.309091-8.378182-24.203636 0.930909-33.047273 9.309091-8.843636 24.203636-8.378182 33.047273 0.930909l57.716363 61.905455c8.843636 9.309091 8.378182 24.203636-0.930909 33.047273-4.654545 4.654545-10.24 6.516364-15.825454 6.516363z" fill="#353E43" p-id="2055"></path></svg>